<svg width="360" height="640" viewBox="0 0 360 640" fill="none" xmlns="http://www.w3.org/2000/svg">
<rect width="360" height="640" fill="#71A1FE"/>
<path d="M131.879 326.704C131.879 318.33 137.105 313.305 142.401 313.305C145.211 313.305 146.884 314.329 148.533 315.957L148.231 312.142V303.604C152.644 303.604 156.244 307.187 156.244 311.63V339.429H149.717L149.137 336.963H148.951C147.162 338.754 144.7 340.057 142.285 340.057C135.943 340.057 131.879 334.986 131.879 326.704ZM148.208 331.357V321.307C147 320.191 145.606 319.772 144.259 319.772C142.076 319.772 140.055 321.842 140.055 326.541C140.055 331.427 141.657 333.497 144.398 333.497C145.931 333.52 147.139 333.008 148.208 331.357Z" fill="white"/>
<path d="M158.355 326.746C158.355 318.305 164.346 313.389 170.849 313.389C177.281 313.389 183.296 318.305 183.296 326.746C183.296 335.141 177.304 340.057 170.849 340.057C164.346 340.057 158.355 335.141 158.355 326.746ZM175.145 326.746C175.145 322.503 173.798 319.813 170.849 319.813C167.853 319.813 166.506 322.503 166.506 326.746C166.506 330.944 167.853 333.634 170.849 333.634C173.798 333.61 175.145 330.944 175.145 326.746Z" fill="white"/>
<path d="M192.05 314.016L192.582 318.45H192.767C194.64 315.061 197.438 313.389 199.981 313.389C201.508 313.389 202.34 313.621 203.057 313.923L201.716 320.771C200.814 320.539 200.074 320.377 198.964 320.377C197.091 320.377 194.825 321.584 193.483 324.95V331.566C193.483 335.93 189.945 339.481 185.598 339.481V320.516C185.598 316.918 188.489 314.016 192.05 314.016Z" fill="white"/>
<path d="M204.592 314.016H211.061L211.594 317.246H211.78C213.89 315.132 216.07 313.389 219.501 313.389C223.026 313.389 225.182 314.876 226.481 317.595C228.66 315.364 231.049 313.389 234.434 313.389C239.976 313.389 242.387 317.362 242.387 323.729V331.512C242.387 335.903 238.816 339.481 234.434 339.481V324.704C234.434 321.219 233.53 320.174 231.536 320.174C230.376 320.174 228.985 320.894 227.478 322.451V339.481H219.478V324.704C219.478 321.219 218.574 320.174 216.58 320.174C215.42 320.174 214.029 320.894 212.522 322.451V339.481H204.615V314.016H204.592Z" fill="white"/>
<path d="M127.483 341C123.321 341 119.953 337.617 119.953 333.435V315.153H127.483V341Z" fill="white"/>
<ellipse cx="123.855" cy="304.861" rx="5.85537" ry="5.86049" fill="white"/>
</svg>
